#!OML:ASF F:\VICON\USERDATA\INSTALL\rory3\rory3.ASF
:FULLY-SPECIFIED
:DEGREES
263
root -7.27317 17.6879 7.47687 -8.69259 -39.6158 6.65297
lowerback 11.4665 1.05597 -1.92663
upperback 1.11424 1.17834 0.695102
thorax -5.31867 0.621871 1.62827
lowerneck -17.2198 3.6353 -9.10527
upperneck 41.4834 6.84174 4.09957
head 17.8043 1.68945 4.79001
rclavicle 5.71506e-015 -4.77083e-015
rhumerus -35.2965 -14.7798 -77.937
rradius 34.4556
rwrist 6.31847
rhand -16.1889 11.2391
rfingers 7.12502
rthumb 10.018 -18.5025
lclavicle 5.71506e-015 -4.77083e-015
lhumerus -28.7628 3.13489 83.6506
lradius 42.115
lwrist 3.14787
lhand -21.5999 28.9233
lfingers 7.12502
lthumb 4.79515 58.849
rfemur -11.1065 -0.108214 16.6927
rtibia 43.0535
rfoot -24.4161 12.1526
rtoes -15.3932
lfemur -9.63382 -0.706277 -25.0561
ltibia 28.0552
lfoot -7.94108 -10.0147
ltoes -10.2867
264
root -7.26058 17.6858 7.5045 -8.80153 -38.9025 6.82598
lowerback 11.4104 1.09656 -2.04485
upperback 1.15783 1.21065 0.551496
thorax -5.24224 0.637822 1.54045
lowerneck -17.1975 3.62542 -9.1182
upperneck 41.4883 6.87091 4.03918
head 17.8034 1.6945 4.7701
rclavicle -5.04913e-014 -3.18055e-015
rhumerus -35.2024 -14.4446 -78.3807
rradius 34.556
rwrist 6.09859
rhand -15.6118 11.7147
rfingers 7.12502
rthumb 10.5747 -17.9993
lclavicle -5.04913e-014 -3.18055e-015
lhumerus -28.64 3.24185 83.4718
lradius 42.1322
lwrist 2.7715
lhand -21.5662 29.2515
lfingers 7.12502
lthumb 4.82768 59.1765
rfemur -11.099 -0.187001 16.9332
rtibia 42.7349
rfoot -23.2242 11.2696
rtoes -12.6517
lfemur -9.72111 -0.775993 -25.3611
ltibia 28.219
lfoot -7.7845 -10.8222
ltoes -10.3967
265
root -7.24875 17.6906 7.52876 -8.89379 -38.1855 6.98076
lowerback 11.3764 1.15567 -2.15273
upperback 1.17133 1.26855 0.404689
thorax -5.21059 0.666852 1.43896
lowerneck -17.0342 3.59259 -9.19277
upperneck 41.5004 6.83005 4.06272
head 17.7674 1.67537 4.7806
rclavicle -5.50137e-014 8.74653e-015
rhumerus -35.2342 -14.1488 -78.753
rradius 34.7717
rwrist 5.86256
rhand -15.2792 11.8945
rfingers 7.12502
rthumb 10.8954 -17.8028
lclavicle -5.50137e-014 8.74653e-015
lhumerus -28.6337 3.38658 83.2937
lradius 42.1517
lwrist 2.18988
lhand -21.2718 28.835
lfingers 7.12502
lthumb 5.11196 58.7533
rfemur -11.0883 -0.216447 17.1264
rtibia 42.517
rfoot -21.3266 10.2808
rtoes -3.60192
lfemur -9.7936 -0.718623 -25.6065
ltibia 28.3191
lfoot -7.45963 -11.8536
ltoes -9.15271
266
root -7.23115 17.7015 7.54914 -8.86484 -37.6636 7.03965
lowerback 11.3364 1.23518 -2.12394
upperback 1.17777 1.37026 0.247664
thorax -5.18118 0.714531 1.24299
lowerneck -16.8851 3.60402 -9.2306
upperneck 41.4232 6.82012 4.14062
head 17.676 1.68999 4.80943
rclavicle -2.05742e-014 3.18055e-015
rhumerus -35.1408 -13.91 -79.1984
rradius 34.9173
rwrist 5.71505
rhand -15.4149 11.7382
rfingers 7.12502
rthumb 10.7645 -17.966
lclavicle -2.05742e-014 3.18055e-015
lhumerus -28.519 3.55119 83.0244
lradius 42.0978
lwrist 1.72932
lhand -20.686 28.6462
lfingers 7.12502
lthumb 5.67753 58.5501
rfemur -11.1457 -0.188305 17.3318
rtibia 42.3825
rfoot -19.4146 8.46114
rtoes 2.91613
lfemur -9.93452 -0.587012 -25.7521
ltibia 28.3847
lfoot -7.2856 -12.6875
ltoes -8.91338
267
root -7.20867 17.71 7.56334 -8.77898 -37.3628 7.10543
lowerback 11.2615 1.40422 -2.04766
upperback 1.20892 1.5973 0.0852852
thorax -5.10871 0.822343 0.996331
lowerneck -16.8595 3.59542 -9.22126
upperneck 41.2886 6.80792 4.15362
head 17.5923 1.7046 4.80267
rclavicle 8.67198e-014 -1.27222e-014
rhumerus -34.9253 -13.5299 -79.7466
rradius 35.0894
rwrist 5.4363
rhand -15.8414 11.2305
rfingers 7.12502
rthumb 10.3532 -18.4947
lclavicle 8.67198e-014 -1.27222e-014
lhumerus -28.3344 3.53027 82.8303
lradius 42.0952
lwrist 1.55725
lhand -20.6653 28.6848
lfingers 7.12502
lthumb 5.69749 58.5882
rfemur -11.2372 -0.126993 17.4948
rtibia 42.3036
rfoot -18.5941 5.79643
rtoes 3.39222
lfemur -10.1488 -0.330431 -25.8804
ltibia 28.433
lfoot -7.17435 -13.2896
ltoes -9.58587
268
root -7.18631 17.7164 7.5769 -8.72166 -36.9757 7.17162
lowerback 11.2403 1.52692 -1.96606
upperback 1.23415 1.7635 -0.0517612
thorax -5.06918 0.90074 0.782071
lowerneck -16.9263 3.56479 -9.38142
upperneck 41.2866 6.79446 4.27689
head 17.5943 1.69657 4.88926
rclavicle 2.18663e-015 6.36111e-015
rhumerus -34.7447 -13.1222 -80.1914
rradius 35.2149
rwrist 5.31363
rhand -16.0767 10.8296
rfingers 7.12502
rthumb 10.1261 -18.9067
lclavicle 2.18663e-015 6.36111e-015
lhumerus -28.2642 3.53626 82.711
lradius 42.1163
lwrist 1.55803
lhand -21.107 28.2765
lfingers 7.12502
lthumb 5.27107 58.1909
rfemur -11.1915 -0.0196058 17.5976
rtibia 42.2123
rfoot -18.3748 3.66869
rtoes 2.10342
lfemur -10.3372 -0.129028 -26.0037
ltibia 28.4804
lfoot -6.75467 -13.9777
ltoes -8.65328
